<svg id="visual" viewBox="0 0 900 600" width="900" height="600" xmlns="http://www.w3.org/2000/svg" xmlns:xlink="http://www.w3.org/1999/xlink" version="1.1"><rect x="0" y="0" width="900" height="600" fill="#9797db"></rect><defs><linearGradient id="grad1_0" x1="33.3%" y1="100%" x2="100%" y2="0%"><stop offset="20%" stop-color="#1c0c5b" stop-opacity="1"></stop><stop offset="80%" stop-color="#1c0c5b" stop-opacity="1"></stop></linearGradient></defs><defs><linearGradient id="grad1_1" x1="33.3%" y1="100%" x2="100%" y2="0%"><stop offset="20%" stop-color="#1c0c5b" stop-opacity="1"></stop><stop offset="80%" stop-color="#312370" stop-opacity="1"></stop></linearGradient></defs><defs><linearGradient id="grad1_2" x1="33.3%" y1="100%" x2="100%" y2="0%"><stop offset="20%" stop-color="#443985" stop-opacity="1"></stop><stop offset="80%" stop-color="#312370" stop-opacity="1"></stop></linearGradient></defs><defs><linearGradient id="grad1_3" x1="33.3%" y1="100%" x2="100%" y2="0%"><stop offset="20%" stop-color="#443985" stop-opacity="1"></stop><stop offset="80%" stop-color="#584f9a" stop-opacity="1"></stop></linearGradient></defs><defs><linearGradient id="grad1_4" x1="33.3%" y1="100%" x2="100%" y2="0%"><stop offset="20%" stop-color="#6d66b0" stop-opacity="1"></stop><stop offset="80%" stop-color="#584f9a" stop-opacity="1"></stop></linearGradient></defs><defs><linearGradient id="grad1_5" x1="33.3%" y1="100%" x2="100%" y2="0%"><stop offset="20%" stop-color="#6d66b0" stop-opacity="1"></stop><stop offset="80%" stop-color="#817ec5" stop-opacity="1"></stop></linearGradient></defs><defs><linearGradient id="grad1_6" x1="33.3%" y1="100%" x2="100%" y2="0%"><stop offset="20%" stop-color="#9797db" stop-opacity="1"></stop><stop offset="80%" stop-color="#817ec5" stop-opacity="1"></stop></linearGradient></defs><defs><linearGradient id="grad2_0" x1="0%" y1="100%" x2="66.7%" y2="0%"><stop offset="20%" stop-color="#1c0c5b" stop-opacity="1"></stop><stop offset="80%" stop-color="#1c0c5b" stop-opacity="1"></stop></linearGradient></defs><defs><linearGradient id="grad2_1" x1="0%" y1="100%" x2="66.7%" y2="0%"><stop offset="20%" stop-color="#312370" stop-opacity="1"></stop><stop offset="80%" stop-color="#1c0c5b" stop-opacity="1"></stop></linearGradient></defs><defs><linearGradient id="grad2_2" x1="0%" y1="100%" x2="66.7%" y2="0%"><stop offset="20%" stop-color="#312370" stop-opacity="1"></stop><stop offset="80%" stop-color="#443985" stop-opacity="1"></stop></linearGradient></defs><defs><linearGradient id="grad2_3" x1="0%" y1="100%" x2="66.7%" y2="0%"><stop offset="20%" stop-color="#584f9a" stop-opacity="1"></stop><stop offset="80%" stop-color="#443985" stop-opacity="1"></stop></linearGradient></defs><defs><linearGradient id="grad2_4" x1="0%" y1="100%" x2="66.7%" y2="0%"><stop offset="20%" stop-color="#584f9a" stop-opacity="1"></stop><stop offset="80%" stop-color="#6d66b0" stop-opacity="1"></stop></linearGradient></defs><defs><linearGradient id="grad2_5" x1="0%" y1="100%" x2="66.7%" y2="0%"><stop offset="20%" stop-color="#817ec5" stop-opacity="1"></stop><stop offset="80%" stop-color="#6d66b0" stop-opacity="1"></stop></linearGradient></defs><defs><linearGradient id="grad2_6" x1="0%" y1="100%" x2="66.7%" y2="0%"><stop offset="20%" stop-color="#817ec5" stop-opacity="1"></stop><stop offset="80%" stop-color="#9797db" stop-opacity="1"></stop></linearGradient></defs><g transform="translate(900, 600)"><path d="M-438 0C-368.8 -18.4 -299.6 -36.8 -284.7 -65C-269.8 -93.2 -309.2 -131.2 -301.8 -145.4C-294.4 -159.6 -240.1 -150 -243.9 -194.5C-247.7 -239.1 -309.6 -337.8 -315.5 -395.6C-321.3 -453.4 -271.2 -470.3 -222.9 -462.9C-174.7 -455.5 -128.3 -423.9 -91.5 -400.7C-54.6 -377.5 -27.3 -362.8 0 -348L0 0Z" fill="#8c8bd0"></path><path d="M-375.4 0C-316.1 -15.8 -256.8 -31.5 -244 -55.7C-231.3 -79.9 -265.1 -112.4 -258.7 -124.6C-252.3 -136.8 -205.8 -128.5 -209.1 -166.7C-212.3 -204.9 -265.4 -289.5 -270.4 -339.1C-275.4 -388.6 -232.4 -403.1 -191.1 -396.8C-149.7 -390.5 -110 -363.3 -78.4 -343.5C-46.8 -323.6 -23.4 -310.9 0 -298.3L0 0Z" fill="#7772ba"></path><path d="M-312.9 0C-263.4 -13.1 -214 -26.3 -203.3 -46.4C-192.7 -66.5 -220.9 -93.7 -215.6 -103.8C-210.3 -114 -171.5 -107.1 -174.2 -138.9C-177 -170.8 -221.2 -241.3 -225.3 -282.6C-229.5 -323.9 -193.7 -335.9 -159.2 -330.6C-124.8 -325.4 -91.6 -302.8 -65.3 -286.2C-39 -269.6 -19.5 -259.1 0 -248.6L0 0Z" fill="#625ba5"></path><path d="M-250.3 0C-210.7 -10.5 -171.2 -21 -162.7 -37.1C-154.2 -53.2 -176.7 -74.9 -172.5 -83.1C-168.2 -91.2 -137.2 -85.7 -139.4 -111.2C-141.6 -136.6 -176.9 -193 -180.3 -226.1C-183.6 -259.1 -155 -268.7 -127.4 -264.5C-99.8 -260.3 -73.3 -242.2 -52.3 -229C-31.2 -215.7 -15.6 -207.3 0 -198.9L0 0Z" fill="#4e448f"></path><path d="M-187.7 0C-158 -7.9 -128.4 -15.8 -122 -27.8C-115.6 -39.9 -132.5 -56.2 -129.4 -62.3C-126.2 -68.4 -102.9 -64.3 -104.5 -83.4C-106.2 -102.5 -132.7 -144.8 -135.2 -169.5C-137.7 -194.3 -116.2 -201.6 -95.5 -198.4C-74.9 -195.2 -55 -181.7 -39.2 -171.7C-23.4 -161.8 -11.7 -155.5 0 -149.1L0 0Z" fill="#3b2e7a"></path><path d="M-125.1 0C-105.4 -5.3 -85.6 -10.5 -81.3 -18.6C-77.1 -26.6 -88.4 -37.5 -86.2 -41.5C-84.1 -45.6 -68.6 -42.8 -69.7 -55.6C-70.8 -68.3 -88.5 -96.5 -90.1 -113C-91.8 -129.5 -77.5 -134.4 -63.7 -132.3C-49.9 -130.2 -36.7 -121.1 -26.1 -114.5C-15.6 -107.9 -7.8 -103.6 0 -99.4L0 0Z" fill="#271865"></path><path d="M-62.6 0C-52.7 -2.6 -42.8 -5.3 -40.7 -9.3C-38.5 -13.3 -44.2 -18.7 -43.1 -20.8C-42.1 -22.8 -34.3 -21.4 -34.8 -27.8C-35.4 -34.2 -44.2 -48.3 -45.1 -56.5C-45.9 -64.8 -38.7 -67.2 -31.8 -66.1C-25 -65.1 -18.3 -60.6 -13.1 -57.2C-7.8 -53.9 -3.9 -51.8 0 -49.7L0 0Z" fill="#1c0c5b"></path></g><g transform="translate(0, 0)"><path d="M512 0C498.1 34.7 484.3 69.4 482.6 110.1C480.9 150.9 491.4 197.6 462.9 222.9C434.4 248.2 367 252 322.1 256.9C277.2 261.7 254.8 267.6 245.7 308C236.5 348.5 240.7 423.5 218.7 454.1C196.7 484.7 148.5 470.9 107.7 471.9C66.9 472.8 33.4 488.4 0 504L0 0Z" fill="#8c8bd0"></path><path d="M438.9 0C427 29.7 415.1 59.5 413.6 94.4C412.2 129.3 421.2 169.4 396.8 191.1C372.4 212.8 314.6 216 276.1 220.2C237.6 224.3 218.4 229.4 210.6 264C202.7 298.7 206.3 363 187.4 389.2C168.6 415.5 127.3 403.7 92.3 404.5C57.3 405.2 28.7 418.6 0 432L0 0Z" fill="#7772ba"></path><path d="M365.7 0C355.8 24.8 345.9 49.6 344.7 78.7C343.5 107.8 351 141.2 330.6 159.2C310.3 177.3 262.2 180 230.1 183.5C198 186.9 182 191.1 175.5 220C168.9 248.9 171.9 302.5 156.2 324.3C140.5 346.2 106.1 336.4 76.9 337C47.8 337.7 23.9 348.9 0 360L0 0Z" fill="#625ba5"></path><path d="M292.6 0C284.7 19.8 276.7 39.7 275.8 62.9C274.8 86.2 280.8 112.9 264.5 127.4C248.3 141.8 209.7 144 184.1 146.8C158.4 149.6 145.6 152.9 140.4 176C135.2 199.1 137.5 242 125 259.5C112.4 277 84.9 269.1 61.5 269.6C38.2 270.2 19.1 279.1 0 288L0 0Z" fill="#4e448f"></path><path d="M219.4 0C213.5 14.9 207.5 29.7 206.8 47.2C206.1 64.7 210.6 84.7 198.4 95.5C186.2 106.4 157.3 108 138 110.1C118.8 112.2 109.2 114.7 105.3 132C101.4 149.3 103.1 181.5 93.7 194.6C84.3 207.7 63.6 201.8 46.2 202.2C28.7 202.6 14.3 209.3 0 216L0 0Z" fill="#3b2e7a"></path><path d="M146.3 0C142.3 9.9 138.4 19.8 137.9 31.5C137.4 43.1 140.4 56.5 132.3 63.7C124.1 70.9 104.9 72 92 73.4C79.2 74.8 72.8 76.5 70.2 88C67.6 99.6 68.8 121 62.5 129.7C56.2 138.5 42.4 134.6 30.8 134.8C19.1 135.1 9.6 139.5 0 144L0 0Z" fill="#271865"></path><path d="M73.1 0C71.2 5 69.2 9.9 68.9 15.7C68.7 21.6 70.2 28.2 66.1 31.8C62.1 35.5 52.4 36 46 36.7C39.6 37.4 36.4 38.2 35.1 44C33.8 49.8 34.4 60.5 31.2 64.9C28.1 69.2 21.2 67.3 15.4 67.4C9.6 67.5 4.8 69.8 0 72L0 0Z" fill="#1c0c5b"></path></g></svg>